<?xml version="1.0" encoding="UTF-8"?>
<!DOCTYPE svg PUBLIC "-//W3C//DTD SVG 1.1//EN" "http://www.w3.org/Graphics/SVG/1.1/DTD/svg11.dtd">
<!-- Creator: CorelDRAW 2020 (64-Bit) -->
<svg xmlns="http://www.w3.org/2000/svg" xml:space="preserve" width="96px" height="96px" version="1.1" style="shape-rendering:geometricPrecision; text-rendering:geometricPrecision; image-rendering:optimizeQuality; fill-rule:evenodd; clip-rule:evenodd"
viewBox="0 0 96 96"
 xmlns:xlink="http://www.w3.org/1999/xlink"
 xmlns:xodm="http://www.corel.com/coreldraw/odm/2003">
 <defs>
  <style type="text/css">
   <![CDATA[
    .fil0 {fill:#00A859}
   ]]>
  </style>
 </defs>
 <g id="Layer_x0020_1">
  <metadata id="CorelCorpID_0Corel-Layer"/>
  <g id="_1739057233904">
   <path class="fil0" d="M20.91 54.5c0.04,-0.35 0,-0.14 0.16,-0.28 0.18,-0.15 0.57,-0.19 0.97,-0.57l1.24 -0.9c1.18,-0.62 0.07,-0.13 1.51,-0.99 0.73,-0.43 0.13,-0.43 1.23,-0.43 1.41,0 0.43,0.29 1.54,0.48 1.53,0.26 1.11,0.38 1.3,0.72 0.57,-0.03 0.99,-0.13 1.38,0.16 0.24,0.17 0.41,0.47 1.13,0.53 1.31,0.11 0.68,0.52 1.79,0.71 0.62,0.1 0.18,-0.14 0.64,0.19 0.46,0.33 -0.07,0.17 0.44,0.28 0.26,0.05 0.47,-0.01 0.76,0.06 0.05,0.01 0.53,0.26 0.56,0.28 0.22,0.15 0.29,0.28 0.48,0.35 0.93,0.3 -0.16,-0.44 1.9,0.59 0.13,0.07 0.12,0.06 0.24,0.12l0.31 0.16c-0.67,0.63 -2.6,1.93 -2.84,2.26 -0.66,0.91 -0.16,0.16 -0.78,0.65l-1.25 1.04c-0.4,-0.51 -1.4,-0.62 -1.83,-0.92 -0.88,-0.63 -0.54,-0.09 -1.31,-0.48 -0.35,-0.18 -0.44,-0.37 -0.62,-0.45 -0.38,-0.18 -0.65,0.02 -1.03,-0.16 -0.18,-0.08 -0.27,-0.27 -0.62,-0.45 -0.7,-0.35 -0.57,0.08 -1.24,-0.42 -0.35,-0.26 0.03,-0.07 -0.38,-0.22 -0.39,-0.14 -0.89,-0.21 -1.22,-0.44 -0.88,-0.62 -0.54,-0.08 -1.3,-0.48 -0.35,-0.18 -0.44,-0.36 -0.62,-0.45 -0.39,-0.17 -0.65,0.02 -1.04,-0.15 -0.36,-0.17 -0.03,-0.25 -1.14,-0.64l-0.36 -0.15zm22.21 6.58c-0.59,0.74 0.17,0.52 -1.1,2.45l-4.36 3.96c-1.17,0.95 -0.22,0.36 -1.29,1.08 -0.47,0.31 -1.05,1.14 -1.84,1.72 -0.47,0.34 -0.21,0.3 -0.57,0.62 -0.45,0.41 -1.65,1.28 -1.92,1.64 -0.4,0.54 -0.15,0.19 -0.66,0.53 -0.41,0.27 -0.79,0.85 -1.22,1.16l-3.06 2.88c-0.34,0.32 -0.48,0.28 -0.71,0.48 -0.33,0.28 -0.09,0.28 -0.56,0.62l-1.98 1.62c-0.26,-0.07 -0.99,-0.31 -1.21,-0.42 -0.74,-0.37 -0.14,-0.36 -1.12,-0.54 -0.85,-0.16 -0.39,-0.45 -1.02,-0.65 -0.92,-0.29 -0.26,0.1 -1.17,-0.49 -0.47,-0.31 -1.84,-0.72 -2.31,-1.02 -0.9,-0.6 -0.24,-0.2 -1.17,-0.49 -0.63,-0.2 -0.16,-0.49 -1.01,-0.65 -0.99,-0.19 -0.39,-0.18 -1.12,-0.54l-2.3 -1.04c-0.78,-0.6 -0.63,-0.13 -1.2,-0.46 -0.63,-0.36 0.11,-0.37 -1.06,-0.6 -0.62,-0.12 -0.47,-0.36 -1.08,-0.59l-1.75 -0.74c-0.44,-0.21 -0.07,-0.23 -0.63,-0.32l0.05 -4.35c0.1,-0.35 0.17,-0.1 0.2,-0.75 0.08,-1.6 -0.16,-1.04 -0.26,-1.69 0.16,-0.11 0.24,-0.16 0.41,-0.29 0.66,0.32 0.56,0.54 1.26,0.67 0.97,0.18 0.71,0.37 1.37,0.65 0.24,0.11 0.43,0.1 0.71,0.24 0.24,0.12 0.42,0.35 0.63,0.44 0.38,0.17 0.39,0.01 0.77,0.17 0.21,0.09 0.39,0.32 0.63,0.44 0.28,0.14 0.47,0.14 0.71,0.24 0.41,0.19 0.2,0.22 0.67,0.4 1.31,0.5 0.96,0.56 1.34,0.68 0.41,0.14 0.34,-0.05 0.77,0.18 0.21,0.12 0.3,0.3 0.63,0.44 0.28,0.12 0.46,0.11 0.71,0.24 0.38,0.2 0.14,0.21 0.68,0.4 0.97,0.34 1.82,0.68 2.68,1.24 0.47,0.31 0.26,0.09 0.75,0.2 0.55,0.13 0.26,0.14 0.61,0.46 0.36,0.33 0.3,0.15 0.71,0.24 1.26,0.25 -0.74,0.43 2.63,0.46 2.12,0.02 2.01,-0.65 4.07,-1.99 0.26,-0.16 0.77,-0.64 1.03,-0.87 0.33,-0.28 0.38,-0.18 0.6,-0.35 0.17,-0.14 0.18,-0.43 1.7,-1.39 0.41,-0.26 0.66,-0.71 1.04,-0.97l4.57 -3.51c0.29,-0.26 0.15,-0.3 0.42,-0.53l1.77 -1.32c0.53,-0.29 3.15,-2.57 3.87,-3.15 0.23,-0.18 0.41,-0.21 0.65,-0.42 0.37,-0.32 1.35,-1.16 1.51,-1.46 0.09,-0.18 -0.02,-0.16 0.2,-0.38l0.23 -0.14c0.01,-0.01 0.05,-0.02 0.08,-0.03l0 -1.31c-4.12,-2.32 -9.17,-3.99 -13.73,-5.64 -1.15,-0.41 -2.43,-0.79 -3.55,-1.2 -1.38,-0.52 -2.3,-0.99 -3.86,-0.53 -1.65,0.49 -6.69,4.47 -8.66,5.85 -0.44,0.31 -1.06,0.62 -1.44,0.93 -0.53,0.43 -0.78,0.75 -1.43,1.06l-5.68 4.07c-1.01,0.78 -1.76,1.33 -2.83,2.04 -1.17,0.77 -1.76,1.17 -2.36,2.51 -0.33,0.73 -0.18,3.69 -0.19,4.69 -0.02,5.17 -0.67,4.31 6.67,7.83 2.14,1.03 4.29,2.29 6.43,3.31 1.05,0.5 2.2,1.09 3.22,1.66 0.73,0.4 2.55,1.39 3.26,1.61 1.6,0.48 2.18,1.01 3.88,0.13 0.93,-0.48 4.42,-3.75 5.12,-4.5 1.23,-1.34 3.58,-3.4 4.99,-4.76 0.86,-0.82 1.66,-1.53 2.53,-2.34 1.69,-1.55 3.24,-3.26 4.9,-4.84 0.68,-0.64 2.12,-1.74 2.26,-2.66 0.25,-1.58 -1.16,-2.26 -2.51,-2.32z"/>
   <path class="fil0" d="M73.19 26.94l1.35 -1c0.14,-0.08 0.07,-0.03 0.23,-0.12l1.66 -1.19c0.2,-0.12 0.29,-0.23 0.43,-0.4l0.97 0.01c0.7,0.82 0.24,0.02 1.85,0.87 0.03,0.01 0.06,0.03 0.08,0.04 0.82,0.43 0.63,0.16 1.1,0.32 0.29,0.1 0.38,0.29 0.49,0.35 0.52,0.24 0.18,-0.15 1.18,0.36 0.54,0.28 0.47,0.12 0.85,0.22 0.55,0.14 0.1,0.26 0.76,0.43 0.33,0.08 0.31,-0.04 0.78,0.17l0.47 0.25c0.78,0.41 0.34,0.19 1.08,0.34l1.21 0.57c-0.47,0.46 -0.17,0.28 -0.71,0.59l-1.54 1.19c-0.58,0.59 -0.44,0.34 -0.83,0.6 -0.26,0.19 -0.43,0.49 -0.66,0.67 -0.56,0.43 -0.27,0.04 -0.85,-0.24 -0.34,-0.15 -0.27,-0.02 -0.61,-0.1 -0.52,-0.13 0.05,0.08 -0.45,-0.27 -0.19,-0.14 0.02,-0.03 -0.22,-0.13l-0.37 -0.11c-0.03,-0.01 -0.06,-0.02 -0.09,-0.03l-0.32 -0.15c-1.57,-0.79 -0.81,-0.29 -1.5,-0.53 -0.41,-0.14 -0.03,-0.28 -0.88,-0.42 -1.2,-0.2 0.21,-0.05 -1.25,-0.53 -0.23,-0.08 -0.06,-0.01 -0.26,-0.1l-0.56 -0.27c-0.03,-0.01 -0.06,-0.02 -0.09,-0.03l-2.27 -0.93c-0.07,-0.03 -0.23,-0.12 -0.24,-0.13 -0.72,-0.33 -0.38,0.02 -0.79,-0.3zm18.3 5.38c-0.1,0.27 -0.04,0.09 -0.19,0.28 -0.04,0.04 -0.21,0.25 -0.21,0.27 -0.16,0.36 -0.02,0.47 -0.1,0.85 -0.13,0.66 -1.26,1.31 -1.7,1.75l-1.31 1.18c-0.8,0.81 -0.8,0.56 -2.08,1.84l-1.83 1.74c-0.13,0.12 -0.02,0.03 -0.19,0.16 -0.41,0.3 -0.6,0.49 -1.01,0.9 -0.81,0.81 -1.2,0.95 -2.08,1.84l-4.11 3.72c-0.23,0.16 -0.8,0.91 -1.12,0.91 -0.02,-0.01 -0.06,-0.06 -0.07,-0.04l-1.16 -0.62c-0.39,-0.3 -0.01,-0.16 -0.45,-0.26 -0.81,-0.19 -0.3,0.02 -0.94,-0.37l-2.85 -1.32c-0.35,-0.19 -0.41,-0.34 -0.82,-0.48 -0.34,-0.11 -0.25,-0.07 -0.48,-0.24 -0.4,-0.29 0.15,-0.11 -0.48,-0.22 -1.1,-0.2 -0.13,0 -0.91,-0.4l-3.12 -1.51c-0.39,-0.29 -0.23,-0.13 -0.81,-0.27 -0.29,-0.07 -0.21,-0.1 -0.45,-0.26 -0.2,-0.15 0.04,-0.03 -0.22,-0.13l-0.86 -0.45c-0.35,-0.24 -0.66,-0.32 -1.11,-0.32l0 -5.94c1.07,-0.04 0.46,0.18 1.21,0.45 0.93,0.35 1.57,0.85 2.2,1.13 0.34,0.15 0.38,0.02 0.7,0.13 0.42,0.15 0.12,0.15 0.5,0.34 0.3,0.15 0.28,0.03 0.6,0.22 0.36,0.21 -0.05,0.12 0.52,0.32l2.89 1.27c0.49,0.2 0.14,0.22 0.58,0.37 0.33,0.11 0.36,-0.02 0.7,0.13 0.35,0.16 0.03,0.14 0.49,0.34 0.82,0.34 0.8,0.45 1.71,0.79 0.57,0.21 0.17,0.13 0.5,0.32 0.42,0.25 0.26,0.05 0.68,0.16 0.57,0.14 0.18,0.16 0.58,0.37 0.35,0.17 1.16,0.07 1.59,0.08 1.02,0.02 0.59,0.08 1.27,-0.39 0.98,-0.66 3.05,-2.14 3.83,-2.94l10.27 -8.28c0.66,-0.39 1.31,-0.92 1.78,-1.54 0.55,-0.72 0.43,-0.27 0.43,-1.35 -1.48,-1.18 -3.48,-1.97 -5.28,-2.56 -0.91,-0.29 -1.9,-0.75 -2.8,-1.11 -0.93,-0.38 -2.07,-0.71 -3.03,-1.02 -5.37,-1.71 -4.8,-3.21 -10.88,1.59 -0.72,0.56 -1.59,1.05 -2.35,1.58 -2.45,1.7 -7.04,5.37 -9.28,6.63 -2.5,1.42 -2.26,3.03 -2.26,5.7 0,0.91 -0.19,3.08 0.31,3.74 0.64,0.85 3.92,2.4 5,2.84 1.75,0.7 3.5,1.97 5.26,2.69 1.81,0.75 3.85,2.19 5.22,2.75 2.66,1.08 3.71,0.29 5.53,-1.51 4.03,-3.94 8.29,-7.63 12.19,-11.69 0.54,-0.57 1.7,-1.38 1.87,-2.09 0.32,-1.29 -0.73,-1.98 -1.87,-2.07z"/>
   <path class="fil0" d="M47.29 10.69c-5.3,-0.04 -10.14,1.29 -14.96,3.22 -0.81,0.33 -1.66,0.83 -2.47,1.21 -3.84,1.82 -9.5,6.53 -11.99,10 -1.29,1.8 -5.35,7.22 -5.27,9.32 0.1,2.38 3.19,2.88 4.17,1.22 0.94,-1.62 1.49,-3.09 2.62,-4.74 0.89,-1.3 1.97,-3.09 3.13,-4.12 0.69,-0.62 0.98,-1.35 1.72,-1.97 0.32,-0.27 0.72,-0.49 1.02,-0.76 0.4,-0.37 0.46,-0.57 0.98,-0.92 1.42,-0.97 2.67,-2.08 4.19,-3.05 4.05,-2.6 8.86,-4.02 13.6,-4.7 0.61,-0.09 0.94,-0.23 1.58,-0.21 0.82,0.03 0.91,0.14 1.68,-0.22l-0.02 2.63c0.01,0.62 -0.11,0.54 0.25,0.7l0 0.23c0.78,0.01 0.65,-0.15 1.67,-0.7l1.59 -0.91c0.03,-0.02 0.12,-0.07 0.15,-0.09l0.87 -0.55c0.02,-0.02 0.06,-0.03 0.08,-0.04l5.47 -3.09c0.03,-0.02 0.12,-0.07 0.15,-0.08 0.03,-0.01 0.06,-0.03 0.08,-0.04l0.16 -0.79c-0.02,-0.02 -0.06,-0.07 -0.08,-0.04 -0.01,0.02 -0.06,-0.03 -0.08,-0.04 -0.01,-0.01 -0.05,-0.03 -0.08,-0.04l-1.58 -0.91c-0.03,-0.02 -0.12,-0.07 -0.15,-0.09l-2.22 -1.22c-0.03,-0.01 -0.06,-0.03 -0.08,-0.04l-1.04 -0.51c-0.02,-0.01 -0.05,-0.03 -0.08,-0.04l-0.66 -0.52c-0.41,-0.36 -0.58,-0.21 -1.09,-0.58l-2.29 -1.27 -1.02 -0.05 0 3.8z"/>
   <path class="fil0" d="M59.88 81.27l0 -3.33 -0.84 0 -0.74 0.56c-1.15,0.56 -1.06,0.64 -1.58,0.91l-0.8 0.39c-0.04,0.01 -0.13,0.06 -0.16,0.08 -0.02,0.01 -0.05,0.03 -0.07,0.04 -0.02,0.02 -0.05,0.04 -0.07,0.05l-0.34 0.26c-0.02,0.02 -0.05,0.04 -0.07,0.05l-0.32 0.16c-0.02,0.01 -0.06,0.02 -0.08,0.03l-2.11 1.22c-0.88,0.66 -0.91,0.4 -1.79,1.06 -0.24,0.18 0.01,0.02 -0.29,0.19l-0.96 0.47 0 0.83 1.51 0.87c0.02,0.01 0.05,0.03 0.08,0.04l3.11 1.87c0.15,0.11 0.07,0.06 0.21,0.15 0.03,0.02 0.13,0.07 0.16,0.08 0.02,0.01 0.05,0.03 0.08,0.04l3.88 2.18c0.02,0.01 0.22,0.11 0.31,0.16l0.88 0.19 0 -3.8c0.54,-0.1 1.5,-0.54 2.11,-0.74 2.03,-0.68 5.73,-2.5 7.41,-4 0.53,-0.47 1.32,-0.28 1.77,-1.08 0.36,-0.65 0.05,-0.38 0.76,-0.66 0.66,-0.27 0.33,-0.31 0.7,-0.74 0.52,-0.59 0.36,0.17 1.74,-1.22 0.95,-0.95 1.91,-1.9 2.87,-2.84 0.38,-0.37 0.86,-1.06 1.3,-1.54 0.42,-0.46 0.75,-1.15 1.18,-1.68 1.05,-1.28 3.95,-6.08 3.95,-7.6 -0.01,-1.71 -1.5,-2.93 -3.13,-2.14 -1.07,0.52 -0.82,0.51 -1.33,1.51 -0.32,0.63 -0.65,1.26 -0.95,1.9 -1.32,2.74 -2.22,3.34 -3.41,5.14 -0.41,0.62 -0.85,0.97 -1.33,1.65 -0.93,1.33 -4.66,4.36 -6.1,5.3 -1.28,0.84 -2.2,1.44 -3.58,2.13l-3.96 1.86z"/>
  </g>
 </g>
</svg>
