<?xml version="1.0" encoding="UTF-8"?>
<!DOCTYPE svg PUBLIC "-//W3C//DTD SVG 1.1//EN" "http://www.w3.org/Graphics/SVG/1.1/DTD/svg11.dtd">
<!-- Creator: CorelDRAW 2020 (64-Bit) -->
<svg xmlns="http://www.w3.org/2000/svg" xml:space="preserve" width="512px" height="512px" version="1.1" style="shape-rendering:geometricPrecision; text-rendering:geometricPrecision; image-rendering:optimizeQuality; fill-rule:evenodd; clip-rule:evenodd"
viewBox="0 0 512 512"
 xmlns:xlink="http://www.w3.org/1999/xlink"
 xmlns:xodm="http://www.corel.com/coreldraw/odm/2003">
 <defs>
  <style type="text/css">
   <![CDATA[
    .fil0 {fill:#373435}
   ]]>
  </style>
 </defs>
 <g id="Layer_x0020_1">
  <metadata id="CorelCorpID_0Corel-Layer"/>
  <g id="_1738733210224">
   <path class="fil0" d="M468.98 434.97c16.15,-40.25 11.46,-84.91 -15.46,-118.89 -16.67,-21.03 -21.4,-18.15 -42.66,-34.84 2.88,-3.46 -0.89,0.37 4.38,-4.67 24.75,-23.66 34.21,-49.76 28.53,-87.61 -17.31,-115.31 -186.1,-80.57 -293.52,-84.68l0.13 50.01c13.08,1.56 23.98,4.32 36.44,8.19 3.45,1.07 13.02,4.24 15.7,3.82 8.96,-1.41 3.41,-3.54 8.55,-9.65 29.54,-0.51 110.84,-3.73 134.91,1.08 35.52,7.09 58.53,50.01 34.01,83.7 -23.52,32.31 -70.34,23.45 -115.27,23.44l-63.28 -6.6c-10.03,-4.96 -39.15,-12.6 -50.77,-15.02l0.4 103.82c20.98,2.61 33.62,8.47 56.23,5.1l0.79 -40.74c38.5,-0.51 109.6,-3.93 144.89,1.55 24.3,3.78 34.25,8.51 48.27,22.5 14.17,14.15 21.22,21.42 21.25,50.14 0.1,94.15 -134.78,70.76 -214.51,71.47l-1.06 -14.49c-0.13,-0.87 -0.4,-1.94 -0.52,-2.63 -0.11,-0.67 -0.53,-1.19 -0.62,-2.53 -0.3,-4.39 -48.63,-5.02 -55.1,-5.45l-1.12 78.31c114.76,-5.08 277.13,29.97 319.41,-75.33z"/>
   <path class="fil0" d="M321.83 249.64c-22.81,-63.05 -165.38,-66.21 -202.72,-97.12 -36.17,-29.95 -9.26,-119.72 87.88,-96.75 25.17,5.96 33.39,14.8 46,30.58l66.79 0.4c-10.77,-50.87 -76.43,-85.02 -135.47,-86.67 -155.67,-4.35 -198.37,174.23 -58,219.7 78.18,25.32 109.52,34.43 195.52,29.86z"/>
   <path class="fil0" d="M110.2 331.4c-6.16,-8.03 -6.55,-13.54 -12.39,-20.07l-64.1 -0.38c7.32,67.97 79.37,104.66 144.51,109.02 34.16,2.29 79.15,-6.22 104.41,-22.43 18.04,-11.58 47.17,-40.82 49.18,-70.26l-57.57 -0.15c-26.87,57.43 -126.34,53.43 -164.04,4.27z"/>
  </g>
 </g>
</svg>
